<svg xmlns="http://www.w3.org/2000/svg" viewBox="0 0 850.18 188.71" role="img" aria-label="BOONS AGENCY"><title>BOONS AGENCY</title><path fill="#ffffff" fill-rule="evenodd" d="M160.99 188.22C156.49 188.09 149.68 187.66 147.33 187.36C146.34 187.23 132.58 187.14 102.33 187.07C54.18 186.96 57.17 187.1 47.73 184.48C38.32 181.86 28.57 176.5 22.44 170.57C15.28 163.64 8.78 150.85 7.66 141.48C6.73 133.69 6.68 132.46 7.09 128.56C7.23 127.23 7.4 124.31 7.48 122.06C7.7 115.6 8.42 112.9 11.74 106.06C15.92 97.47 15.85 96.07 10.93 89.6C8.01 85.76 7.38 84.78 5.68 81.42C2.79 75.72 1.96 73.34 1.32 68.91C1.12 67.58 0.81 65.81 0.62 64.98C0.16 62.94 0 54.94 0.38 52.73C0.79 50.36 1.29 47.24 1.57 45.4C2.41 39.87 6.31 30.25 9.89 24.93C13.93 18.9 15.06 17.62 18.96 14.64C20.26 13.63 21.99 12.3 22.79 11.68C28.84 6.97 40.88 2.38 49.26 1.58C56.4 0.9 58.16 0.83 61.68 1.12C64.77 1.38 70.1 1.4 121.49 1.4C185.58 1.41 181.09 1.28 182.27 3.07C183.25 4.56 183.22 4 183.33 20.06C183.44 36 183.42 35.68 184.35 36.61C185.51 37.77 186.32 37.07 190.92 30.98C196.77 23.21 206.84 14.96 215.01 11.22C216.34 10.61 218.37 9.61 219.51 9.01C224.3 6.47 237.2 2.35 243.06 1.47C243.99 1.33 245.76 1.02 246.99 0.77C250.8 0 294.04 0.07 297.83 0.85C299.25 1.14 301.16 1.49 302.08 1.63C302.99 1.78 304.38 2.07 305.16 2.29C305.94 2.5 308.04 3.07 309.83 3.55C316.89 5.42 320.86 6.91 326.99 9.98C332.02 12.5 332.99 13.14 341.16 19.46C344.93 22.38 346.81 24.2 348.93 26.98C349.77 28.08 351.03 29.62 351.73 30.4C358.19 37.56 365.29 52.34 367.75 63.73C368.79 68.55 370.35 70.24 372.67 69.06C374.01 68.37 374.41 67.49 375.66 62.4C376.43 59.27 381.17 47.05 382.65 44.4C385.39 39.48 389.03 33.86 390.68 31.98C391.24 31.34 392.55 29.76 393.58 28.48C395.67 25.88 396.76 24.78 399.33 22.7C400.29 21.91 402.05 20.39 403.24 19.32C407.05 15.88 409.38 14.39 416.66 10.74C424.36 6.87 427.6 5.59 433.74 3.98C435.03 3.64 437.24 3.03 438.66 2.62C440.08 2.21 442.22 1.73 443.41 1.55C444.6 1.37 446.55 1.02 447.74 0.77C451.16 0.05 494.34 0.05 497.74 0.77C498.94 1.02 500.77 1.34 501.83 1.49C503.79 1.76 505.67 2.18 507 2.65C507.41 2.8 509.17 3.29 510.91 3.75C517.46 5.47 520.97 6.8 527.37 10C536.53 14.59 544.42 20.75 551.54 28.88C553.91 31.58 555.04 32.16 555.99 31.15C556.86 30.23 556.88 29.95 556.99 16.56C557.06 8.42 557.16 3.97 557.27 3.64C557.93 1.77 559.09 0.78 561.07 0.41C562.73 0.11 612.75 0.17 614.22 0.48C616.93 1.05 619.37 3.93 623.25 11.15C624.13 12.8 625.82 15.61 626.99 17.4C628.15 19.18 629.59 21.47 630.16 22.48C630.74 23.49 631.55 24.84 631.97 25.48C632.38 26.12 634.4 29.42 636.45 32.8C638.5 36.19 640.7 39.75 641.32 40.72C642.41 42.42 643.38 44.1 645.07 47.28C645.5 48.09 646.61 49.89 647.53 51.28C648.46 52.67 650.62 56.18 652.34 59.06C654.06 61.95 656.45 65.83 657.65 67.68C658.85 69.53 660.51 72.3 661.35 73.84C662.18 75.39 663.48 77.62 664.24 78.81C667.15 83.38 673.09 93.04 675.26 96.72C677.59 100.67 679.3 101.74 680.38 99.91C681.08 98.72 681.06 100.08 681.15 50.73C681.24 3.48 681.24 3.48 681.74 2.48C682.33 1.31 683.22 0.67 684.64 0.4C686.32 0.08 727.56 0.18 730.74 0.5C733.24 0.76 733.62 0.76 736.66 0.49C741.56 0.06 789.94 0.18 791.74 0.62C792.39 0.78 794.15 1.13 795.66 1.4C814.42 4.73 829.19 13.92 837.03 27.15C841.1 34.01 843.41 40.1 844.5 46.83C844.69 48 845.03 49.86 845.26 50.95C846.56 57.2 845.69 60.63 842.62 61.42C841.09 61.82 798.4 61.75 797.12 61.35C795.26 60.78 794.68 59.94 793.76 56.48C791.57 48.24 787.92 44.94 780.49 44.49C779.53 44.43 777.51 44.14 775.99 43.85C771.96 43.07 751.57 43.01 747.83 43.77C746.59 44.02 744.75 44.34 743.74 44.48C738.33 45.23 733.8 48.78 733.02 52.9C731.56 60.62 734.25 67.03 739.96 69.4C744.5 71.29 747.1 71.47 771.58 71.56C794.41 71.65 794.41 71.65 797.16 72.19C798.67 72.49 800.74 72.89 801.74 73.07C802.75 73.26 804.74 73.74 806.16 74.14C807.58 74.54 809.65 75.1 810.75 75.38C826.11 79.25 839.76 91.43 844.64 105.6C850.18 121.71 849.72 136.62 843.14 153.56C842 156.52 839.63 160.46 836.48 164.65C832.87 169.45 824.54 176.33 819.41 178.74C812.56 181.96 808.21 183.41 800.83 184.94C796.58 185.81 796.58 185.81 736.08 185.81C669.13 185.81 674.71 185.9 673.02 184.83C671.48 183.85 667.96 178.83 665.1 173.53C664.22 171.9 662.63 169.24 661.56 167.61C660.49 165.98 659.11 163.77 658.49 162.71C657.86 161.64 656.89 160.02 656.31 159.12C654.88 156.87 652.72 153.28 651.12 150.49C650.39 149.2 648.89 146.78 647.79 145.1C646.7 143.43 645.13 140.86 644.31 139.38C643.5 137.91 642.18 135.68 641.38 134.43C640.59 133.17 638.99 130.57 637.83 128.65C636.66 126.72 634.92 123.95 633.96 122.48C633 121.01 631.79 119.1 631.29 118.23C630.31 116.54 628.14 112.9 625.91 109.23C625.16 107.99 623.32 104.92 621.82 102.4C614.43 89.98 611.72 86.56 610.63 88.27C609.9 89.4 609.93 87.7 609.83 135.98C609.76 172.13 609.69 181.94 609.53 182.43C608.31 186.01 609.21 185.89 582.99 185.89C558.96 185.89 559.52 185.92 558.13 184.45C557.04 183.31 557.09 183.92 556.98 170.15C556.85 151.83 556.49 151.46 548.22 161C545.21 164.48 540.57 168.5 536.33 171.31C529.25 175.99 524.94 178.2 518.49 180.45C516.52 181.14 514.04 182.01 512.99 182.38C509.96 183.45 506.19 184.35 503.83 184.56C502.68 184.66 500.54 184.99 499.08 185.28C496.41 185.81 496.41 185.81 472.74 185.81C449.08 185.81 449.08 185.81 446.41 185.28C444.94 184.99 442.81 184.66 441.66 184.56C438.67 184.29 434.44 183.3 431.01 182.07C419.81 178.05 410.73 173.37 405.49 168.94C404.53 168.13 402.96 166.87 401.99 166.16C399.74 164.47 393.95 158.7 392.35 156.54C391.7 155.66 390.46 154.1 389.61 153.08C384.1 146.48 377.57 132.31 374.83 120.98C373.6 115.87 372.86 114.57 371.33 114.8C369.77 115.04 369.48 115.68 367.59 123.31C365.28 132.59 364.98 133.4 359.65 144.33C358.32 147.06 353.27 154.8 351.28 157.16C349.68 159.06 340.73 167.93 339.41 168.92C337.93 170.04 335.63 171.55 333.74 172.65C332.83 173.18 331.14 174.19 329.99 174.9C323.73 178.77 310.57 183.51 303.4 184.48C302.31 184.63 300.21 184.99 298.74 185.28C294.54 186.12 250.29 186.11 245.99 185.28C244.48 184.99 242.31 184.67 241.16 184.57C234.51 183.99 222.94 179.77 212.58 174.13C205.09 170.06 194.8 161.08 189.67 154.15C186.41 149.75 185.39 148.99 184.25 150.13C183.43 150.94 183.44 150.82 183.32 167.31C183.2 183.99 183.22 183.65 182.32 185.46C180.87 188.36 178.18 188.71 160.99 188.22ZM126.78 143.88C130.25 143.27 130.23 143.33 130.29 129.83C130.35 116.15 130.35 116.18 128.02 115.09C126.99 114.61 69.62 114.27 66.83 114.73C62.11 115.51 59.16 120.63 59.16 128.06C59.16 138.26 63.08 142.5 73.79 143.88C75.54 144.1 125.49 144.1 126.78 143.88ZM778.02 143.52C779.09 143.28 780.89 142.96 782.02 142.81C790.48 141.71 793.86 139.75 795 135.3C795.44 133.58 795.49 125.43 795.07 123.82C793.89 119.27 789.53 116.25 783.41 115.74C782.3 115.65 780.46 115.36 779.32 115.11C776.92 114.58 736.04 114.35 734.35 114.87C731.61 115.69 731.58 115.89 731.58 129.31C731.58 143.23 731.58 143.26 735.16 143.9C737.46 144.31 776.05 143.97 778.02 143.52ZM282.66 142.26C284.08 141.98 285.92 141.66 286.74 141.56C299.48 140.03 310.27 131.39 314.91 118.98C316.42 114.96 314.75 113.28 309.66 113.71C308.42 113.81 306.02 113.97 304.33 114.07C302.63 114.16 300.83 114.28 300.33 114.33C299.82 114.39 283.81 114.48 264.74 114.54C225.84 114.66 229.04 114.53 228.04 116.05C226.65 118.14 229.63 124.18 234.95 130.06C241.09 136.87 248.35 140.83 255.99 141.57C257.05 141.67 258.89 141.95 260.08 142.18C264.81 143.11 278.18 143.16 282.66 142.26ZM483.02 142.26C484.36 141.98 486.35 141.67 487.44 141.57C497.18 140.63 506.97 134.15 512.49 124.98C516.78 117.86 517.06 114.34 513.41 113.57C511.31 113.12 430.16 113.44 429.24 113.9C427.01 115.02 427.05 116.46 429.48 121.37C434.98 132.47 445.97 140.66 456.58 141.57C457.77 141.67 459.68 141.95 460.83 142.18C465.3 143.1 478.71 143.15 483.02 142.26ZM127.99 69.79C130.22 68.74 130.21 68.8 130.34 58.06C130.49 46.01 130.37 45.5 127.28 44.7C125.73 44.31 65.57 44.38 63.58 44.78C55.88 46.34 53.21 49.67 53.04 57.93C52.88 65.89 54.07 68.99 57.67 69.97C59.38 70.43 127 70.26 127.99 69.79ZM312.74 69.73C315.47 68.35 314.59 65.22 309.27 57.31C307.27 54.34 300.35 49.24 296 47.54C289.63 45.04 287.91 44.66 281.91 44.41C279.29 44.29 278.11 44.16 276.41 43.8C273.26 43.13 269.08 43.12 265.91 43.8C264.31 44.14 262.76 44.32 259.99 44.49C255.33 44.77 252.64 45.39 248.26 47.17C239.94 50.56 235.1 54.7 230.37 62.44C227.63 66.92 227.65 69.13 230.41 70C231.93 70.48 311.77 70.22 312.74 69.73ZM437.18 69.65C439.51 69.51 441.9 69.36 442.49 69.3C443.09 69.24 458.95 69.15 477.74 69.09C511.91 68.98 511.91 68.98 512.78 68.59C515.29 67.46 514.8 64.88 511.01 59.22C504.92 50.1 493.59 44.44 481.38 44.4C480.35 44.4 479 44.23 477.22 43.87C473.5 43.13 469.48 43.1 466.33 43.79C464.75 44.14 463.31 44.3 460.41 44.48C456.12 44.74 455.75 44.81 451.16 46.38C444.2 48.74 441.04 50.53 437.18 54.3C430.97 60.37 427.66 67.04 429.84 69.08C430.78 69.95 431.31 69.99 437.18 69.65Z"/></svg>
